{
    "asset" : {
        "generator" : "Khronos glTF Blender I/O v1.7.33",
        "version" : "2.0"
    },
    "scene" : 0,
    "scenes" : [
        {
            "name" : "Scene",
            "nodes" : [
                0,
                1
            ]
        }
    ],
    "nodes" : [
        {
            "name" : "Empty",
            "rotation" : [
                0.5,
                0.5,
                -0.5,
                0.4999999701976776
            ],
            "scale" : [
                0.41434669494628906,
                0.41434669494628906,
                0.41434669494628906
            ],
            "translation" : [
                0.15888237953186035,
                0.9950411319732666,
                -1.027580738067627
            ]
        },
        {
            "mesh" : 0,
            "name" : "Plane",
            "rotation" : [
                0,
                0,
                -0.7071068286895752,
                0.7071068286895752
            ],
            "scale" : [
                0.24631226062774658,
                0.24631226062774658,
                0.24631226062774658
            ]
        }
    ],
    "meshes" : [
        {
            "name" : "Plane",
            "primitives" : [
                {
                    "attributes" : {
                        "POSITION" : 0,
                        "NORMAL" : 1,
                        "TEXCOORD_0" : 2
                    },
                    "indices" : 3
                }
            ]
        }
    ],
    "accessors" : [
        {
            "bufferView" : 0,
            "componentType" : 5126,
            "count" : 981,
            "max" : [
                0.005375480744987726,
                0.994062602519989,
                -0.015758514404296875
            ],
            "min" : [
                -7.616270542144775,
                -0.9972512722015381,
                -7.711268901824951
            ],
            "type" : "VEC3"
        },
        {
            "bufferView" : 1,
            "componentType" : 5126,
            "count" : 981,
            "type" : "VEC3"
        },
        {
            "bufferView" : 2,
            "componentType" : 5126,
            "count" : 981,
            "type" : "VEC2"
        },
        {
            "bufferView" : 3,
            "componentType" : 5123,
            "count" : 1560,
            "type" : "SCALAR"
        }
    ],
    "bufferViews" : [
        {
            "buffer" : 0,
            "byteLength" : 11772,
            "byteOffset" : 0
        },
        {
            "buffer" : 0,
            "byteLength" : 11772,
            "byteOffset" : 11772
        },
        {
            "buffer" : 0,
            "byteLength" : 7848,
            "byteOffset" : 23544
        },
        {
            "buffer" : 0,
            "byteLength" : 3120,
            "byteOffset" : 31392
        }
    ],
    "buffers" : [
        {
            "byteLength" : 34512,
            "uri" : "data:application/octet-stream;base64,"
        }
    ]
}
